      <svg> 
                    <g style="margin:auto" id="Group_689" data-name="Group 689">
                      <g id="Group_680" data-name="Group 680" transform="translate(71.535 30.194)">
                        <g id="Group_679" data-name="Group 679" transform="translate(13.558 11.978)">
                          <path id="Path_3751" data-name="Path 3751" d="M131.487,68.2c-3.826,0-6.987,3.494-6.987,7.736s-.083,16.054,6.987,16.054c7.4,0,6.987-11.812,6.987-16.054C138.474,71.61,135.313,68.2,131.487,68.2Z" transform="translate(-121.838 -68.2)" fill="#343743"></path>
                          <rect id="Rectangle_427" data-name="Rectangle 427" width="2.495" height="4.908" transform="translate(8.401 13.392)" fill="#cfcfcf"></rect>
                          <g id="Group_677" data-name="Group 677" transform="translate(8.401 13.642)" opacity="0.65">
                            <path id="Path_3752" data-name="Path 3752" d="M131.4,85.765a4.762,4.762,0,0,0,2.5,0V84.6h-2.5Z" transform="translate(-131.4 -84.6)" fill="#c4c4c4"></path>
                          </g>
                          <path id="Path_3753" data-name="Path 3753" d="M131.857,69.7c-2.911,0-5.157,2.911-5.157,6.4,0,3.577,2.329,6.4,5.157,6.4,2.911,0,5.157-2.911,5.157-6.4S134.768,69.7,131.857,69.7Z" transform="translate(-122.208 -68.452)" fill="#cfcfcf"></path>
                          <path id="Path_3754" data-name="Path 3754" d="M138.881,76.8a1.261,1.261,0,1,0,1.081,1.248A1.058,1.058,0,0,0,138.881,76.8Z" transform="translate(-124.075 -69.646)" fill="#cfcfcf"></path>
                          <path id="Path_3755" data-name="Path 3755" d="M126.481,76.8a1.261,1.261,0,1,0,1.081,1.248A1.146,1.146,0,0,0,126.481,76.8Z" transform="translate(-121.99 -69.646)" fill="#cfcfcf"></path>
                          <path id="Path_3756" data-name="Path 3756" d="M131.639,88.713l-1.5-1.913-4.242.25v9.067h11.728V87.05l-3.993-.25Z" transform="translate(-122.074 -71.328)" fill="#eeeded"></path>
                          <path id="Path_3757" data-name="Path 3757" d="M136.855,86.8h-3.494l-2.5,8.484-2.08-8.484h-3.743a3.354,3.354,0,0,0-2.911,2.911l-.832,6.4h3.494l.25-1.664v1.664h11.812V94.453l.25,1.664H140.6l-.832-6.4A3.441,3.441,0,0,0,136.855,86.8Z" transform="translate(-121.3 -71.328)" fill="#838d93"></path>
                          <path id="Path_3758" data-name="Path 3758" d="M132.279,88.646,131.031,86.4l-1.331.582.416,1.83.333,1.664,1.83-1.414h0l1.83,1.5.416-1.747.5-1.664-1.331-.665Z" transform="translate(-122.713 -71.261)" fill="#c5c4c7"></path>
                          <path id="Path_3759" data-name="Path 3759" d="M126.983,87.831l1.331,2.412-1.414.749,4.991,4.575V94.236L129.978,86.5Z" transform="translate(-122.242 -71.278)" fill="#b5bbbf"></path>
                          <path id="Path_3760" data-name="Path 3760" d="M137.808,87.831,134.813,86.5,132.9,94.236v1.331l4.991-4.575-1.414-.749Z" transform="translate(-123.251 -71.278)" fill="#b5bbbf"></path>
                          <g id="Group_678" data-name="Group 678" transform="translate(6.987 14.723)">
                            <path id="Path_3761" data-name="Path 3761" d="M132.8,88.579l1.83,1.5.915-3.41L134.214,86Z" transform="translate(-130.221 -85.917)" fill="#eeeded"></path>
                            <path id="Path_3762" data-name="Path 3762" d="M129.7,86.482l.749,3.494,1.83-1.414L131.031,85.9Z" transform="translate(-129.7 -85.9)" fill="#eeeded"></path>
                          </g>
                          <path id="Path_3763" data-name="Path 3763" d="M139.416,80a.416.416,0,1,0,.416.416A.446.446,0,0,0,139.416,80Z" transform="translate(-124.277 -70.185)" fill="#eeeded"></path>
                          <path id="Path_3764" data-name="Path 3764" d="M126.316,80a.416.416,0,1,0,.416.416A.534.534,0,0,0,126.316,80Z" transform="translate(-122.074 -70.185)" fill="#eeeded"></path>
                          <path id="Path_3765" data-name="Path 3765" d="M125.7,75.5c7.32,0,6.072-6.4,6.072-6.4C126.282,69.35,125.7,75.5,125.7,75.5Z" transform="translate(-122.04 -68.351)" fill="#343743"></path>
                          <path id="Path_3766" data-name="Path 3766" d="M132.984,69.1s-1.248,6.4,6.072,6.4C139.056,75.5,138.557,69.35,132.984,69.1Z" transform="translate(-123.252 -68.351)" fill="#343743"></path>
                        </g>
                        <path id="Path_3767" data-name="Path 3767" d="M147.339,74.6l3.993-1.58-3.41-8.817-3.993,1.58A19.72,19.72,0,0,0,140.1,61.7c.915-2,1.83-4.159,1.83-4.159L133.281,53.8l-1.83,4.159a17.931,17.931,0,0,0-5.573-.083l-1.58-3.993-8.817,3.41,1.58,3.993a19.315,19.315,0,0,0-3.993,3.826l-4.242-1.83L105,71.85l4.242,1.83a17.4,17.4,0,0,0-.083,5.49l-4.076,1.58,3.41,8.817,4.159-1.58a19.315,19.315,0,0,0,3.826,3.993l-1.913,4.325,8.651,3.826s1-2.246,1.913-4.325a20.251,20.251,0,0,0,5.49.166l1.58,4.159,8.817-3.41-1.58-4.076a19.315,19.315,0,0,0,3.993-3.826l4.242,1.913,3.826-8.651-4.242-1.83A21.517,21.517,0,0,0,147.339,74.6Zm-7.154,7.569a13,13,0,1,1-6.571-17.135A12.987,12.987,0,0,1,140.185,82.164Z" transform="translate(-105 -53.8)" fill="#dcddde"></path>
                      </g>
                      <g id="Group_684" data-name="Group 684">
                        <g id="Group_683" data-name="Group 683" transform="translate(13.808 12.221)">
                          <rect id="Rectangle_428" data-name="Rectangle 428" width="2.412" height="4.824" transform="translate(8.152 13.399)" fill="#cfcfcf"></rect>
                          <g id="Group_681" data-name="Group 681" transform="translate(8.152 13.565)" opacity="0.65">
                            <path id="Path_3768" data-name="Path 3768" d="M45.4,49.665a4.762,4.762,0,0,0,2.5,0V48.5H45.483v1.165Z" transform="translate(-45.4 -48.5)" fill="#c4c4c4"></path>
                          </g>
                          <path id="Path_3769" data-name="Path 3769" d="M45.874,34c-2.828,0-5.074,2.828-5.074,6.322s2.246,6.322,5.074,6.322,5.074-2.828,5.074-6.322S48.7,34,45.874,34Z" transform="translate(-36.475 -32.496)" fill="#cfcfcf"></path>
                          <path id="Path_3770" data-name="Path 3770" d="M52.781,40.8a1.168,1.168,0,1,0,1.081,1.165A1.177,1.177,0,0,0,52.781,40.8Z" transform="translate(-38.308 -33.64)" fill="#cfcfcf"></path>
                          <path id="Path_3771" data-name="Path 3771" d="M40.481,40.8a1.168,1.168,0,1,0,1.081,1.165A1.067,1.067,0,0,0,40.481,40.8Z" transform="translate(-36.239 -33.64)" fill="#cfcfcf"></path>
                          <path id="Path_3772" data-name="Path 3772" d="M40.436,40.389h1.081s.083-4.409,2.08-5.739C43.68,34.649,38.855,32.57,40.436,40.389Z" transform="translate(-36.36 -32.563)" fill="#343743"></path>
                          <path id="Path_3773" data-name="Path 3773" d="M50.9,36.8a11.493,11.493,0,0,1,.749,3.909H52.73a10.409,10.409,0,0,0,.083-3.909Z" transform="translate(-38.173 -32.967)" fill="#343743"></path>
                          <path id="Path_3774" data-name="Path 3774" d="M51.119,34.195c-2.994-4.824-7.819.582-7.819.582a6.04,6.04,0,0,1,3.41,1.331,6.024,6.024,0,0,0,1.913,1c4.824,1.664,5.24-2.745,5.24-2.745a.081.081,0,0,1-.083.083A1.647,1.647,0,0,1,51.119,34.195Z" transform="translate(-36.895 -32.192)" fill="#343743"></path>
                          <path id="Path_3775" data-name="Path 3775" d="M45.656,52.613l-1.5-1.913H40v9.15H51.479V50.7H47.569Z" transform="translate(-36.34 -35.305)" fill="#eeeded"></path>
                          <path id="Path_3776" data-name="Path 3776" d="M46.3,52.546,45.048,50.3l-1.248.582.416,1.83.333,1.58L46.3,52.879h0l1.747,1.5.416-1.664.5-1.664-1.248-.665Z" transform="translate(-36.979 -35.238)" fill="#c5c4c7"></path>
                          <path id="Path_3777" data-name="Path 3777" d="M50.739,50.7h-3.41l-2.412,8.318-2-8.318H39.26a3.186,3.186,0,0,0-2.828,2.828L35.6,59.85h3.41l.25-1.664V59.85H50.739V58.186l.25,1.664H54.4l-.832-6.322A3.266,3.266,0,0,0,50.739,50.7Z" transform="translate(-35.6 -35.305)" fill="#343743"></path>
                          <path id="Path_3778" data-name="Path 3778" d="M41.083,51.748l1.331,2.329L41,54.825l4.908,4.492V57.986L43.994,50.5Z" transform="translate(-36.508 -35.271)" fill="#62646f"></path>
                          <path id="Path_3779" data-name="Path 3779" d="M51.641,51.748,48.813,50.5,46.9,57.986v1.331l4.908-4.492-1.414-.749Z" transform="translate(-37.501 -35.271)" fill="#62646f"></path>
                          <g id="Group_682" data-name="Group 682" transform="translate(6.821 14.646)">
                            <path id="Path_3780" data-name="Path 3780" d="M46.8,52.479l1.747,1.414.915-3.327L48.214,49.9Z" transform="translate(-44.305 -49.817)" fill="#eeeded"></path>
                            <path id="Path_3781" data-name="Path 3781" d="M43.8,50.382l.749,3.41L46.3,52.379,45.048,49.8Z" transform="translate(-43.8 -49.8)" fill="#eeeded"></path>
                          </g>
                        </g>
                        <path id="Path_3782" data-name="Path 3782" d="M61.339,38.378l3.993-1.58-3.41-8.817-3.993,1.58A19.72,19.72,0,0,0,54.1,25.485c.915-2,1.83-4.159,1.83-4.159L47.281,17.5l-1.83,4.159a17.931,17.931,0,0,0-5.573-.083L38.3,17.583l-8.817,3.41,1.58,3.993a19.315,19.315,0,0,0-3.993,3.826l-4.242-1.83L19,35.633l4.242,1.913a17.4,17.4,0,0,0-.083,5.49l-4.076,1.58,3.41,8.817,4.159-1.58a19.315,19.315,0,0,0,3.826,3.993l-1.913,4.325L37.216,64s1-2.246,1.913-4.325a20.251,20.251,0,0,0,5.49.166L46.2,64l8.817-3.41-1.58-4.076a19.315,19.315,0,0,0,3.993-3.826L61.672,54.6,65.5,45.948l-4.242-1.83A26.689,26.689,0,0,0,61.339,38.378ZM54.1,45.948a13,13,0,1,1-6.654-17.135A12.987,12.987,0,0,1,54.1,45.948Z" transform="translate(-19 -17.5)" fill="#139ad6"></path>
                      </g>
                      <g id="Group_688" data-name="Group 688" transform="translate(8.651 38.845)">
                        <g id="Group_687" data-name="Group 687" transform="translate(20.046 17.561)">
                          <rect id="Rectangle_429" data-name="Rectangle 429" width="3.826" height="7.653" transform="translate(13.059 20.618)" fill="#cfcfcf"></rect>
                          <g id="Group_685" data-name="Group 685" transform="translate(13.059 20.868)" opacity="0.65">
                            <path id="Path_3783" data-name="Path 3783" d="M69.2,112.23a7.086,7.086,0,0,0,1.913.333,4.88,4.88,0,0,0,1.913-.333V110.4H69.2v1.83Z" transform="translate(-69.2 -110.4)" fill="#c4c4c4"></path>
                          </g>
                          <path id="Path_3784" data-name="Path 3784" d="M69.868,87.4c-4.492,0-8.068,4.492-8.068,9.982s3.577,9.982,8.068,9.982,8.068-4.492,8.068-9.982S74.36,87.4,69.868,87.4Z" transform="translate(-54.896 -85.664)" fill="#cfcfcf"></path>
                          <path id="Path_3785" data-name="Path 3785" d="M80.847,98.3a1.921,1.921,0,1,0,1.747,1.913A1.8,1.8,0,0,0,80.847,98.3Z" transform="translate(-57.806 -87.497)" fill="#cfcfcf"></path>
                          <path id="Path_3786" data-name="Path 3786" d="M61.447,98.3a1.921,1.921,0,1,0,1.747,1.913A1.8,1.8,0,0,0,61.447,98.3Z" transform="translate(-54.543 -87.497)" fill="#cfcfcf"></path>
                          <path id="Path_3787" data-name="Path 3787" d="M61.393,100.395h1.747s.083-9.815,3.327-11.895C66.467,88.583,58.814,88.084,61.393,100.395Z" transform="translate(-54.738 -85.849)" fill="#343743"></path>
                          <path id="Path_3788" data-name="Path 3788" d="M76.2,91.9c3.161,3.161,2.579,9.067,2.579,9.067h1.747c1.58-6.4-.915-9.067-.915-9.067Z" transform="translate(-57.318 -86.42)" fill="#343743"></path>
                          <path id="Path_3789" data-name="Path 3789" d="M77.961,86.8C71.473,82.474,65.9,88.962,65.9,88.962s7.32,5.324,14.057,1.5C79.957,90.542,79.542,87.881,77.961,86.8Z" transform="translate(-55.586 -85.313)" fill="#343743"></path>
                          <path id="Path_3790" data-name="Path 3790" d="M69.583,116.895,67.254,113.9H60.6v14.473H78.816V113.9H72.661Z" transform="translate(-54.694 -90.121)" fill="#eeeded"></path>
                          <path id="Path_3791" data-name="Path 3791" d="M77.622,114H72.216l-3.826,13.142L65.145,114H59.323a5.207,5.207,0,0,0-4.492,4.492L53.5,128.473h5.407l.416-2.579v2.579H77.539v-2.579l.416,2.579h5.407l-1.331-9.982A4.965,4.965,0,0,0,77.622,114Z" transform="translate(-53.5 -90.138)" fill="#838d93"></path>
                          <path id="Path_3792" data-name="Path 3792" d="M70.593,116.777,68.68,113.2l-2.08,1,.665,2.828.5,2.579,2.828-2.246h0l2.745,2.329.749-2.662.665-2.662-2-1Z" transform="translate(-55.703 -90.003)" fill="#c5c4c7"></path>
                          <path id="Path_3793" data-name="Path 3793" d="M62.366,115.5l2.08,3.66L62.2,120.4l7.736,7.07v-2.08L66.941,113.5Z" transform="translate(-54.963 -90.054)" fill="#62646f"></path>
                          <path id="Path_3794" data-name="Path 3794" d="M79.069,115.5l-4.575-2L71.5,125.395v2.08l7.819-7.07-2.329-1.248Z" transform="translate(-56.528 -90.054)" fill="#62646f"></path>
                          <g id="Group_686" data-name="Group 686" transform="translate(10.897 22.615)">
                            <path id="Path_3795" data-name="Path 3795" d="M71.4,116.676,74.145,119l1.414-5.324-2-1.081Z" transform="translate(-67.407 -112.517)" fill="#eeeded"></path>
                            <path id="Path_3796" data-name="Path 3796" d="M66.6,113.415l1.165,5.407,2.828-2.246L68.68,112.5Z" transform="translate(-66.6 -112.5)" fill="#eeeded"></path>
                          </g>
                        </g>
                        <path id="Path_3797" data-name="Path 3797" d="M89.373,84.33l4.575-4.575L83.883,69.69l-4.575,4.575a28.232,28.232,0,0,0-7.819-3.244V64.2H57.349v6.821a29.32,29.32,0,0,0-7.819,3.244L44.955,69.69,34.89,79.755l4.575,4.575A28.58,28.58,0,0,0,36.3,92.065H29.4v14.224h6.987a27.2,27.2,0,0,0,3.244,7.653L34.973,118.6l10.065,10.065,4.741-4.741a27.019,27.019,0,0,0,7.653,3.161v7.07H71.656v-7.07a28.056,28.056,0,0,0,7.653-3.161l4.741,4.741L94.114,118.6l-4.658-4.658a29.857,29.857,0,0,0,3.244-7.653h6.987V92.149h-6.9A38.994,38.994,0,0,0,89.373,84.33ZM64.419,119.764A20.629,20.629,0,1,1,85.048,99.136,20.625,20.625,0,0,1,64.419,119.764Z" transform="translate(-29.4 -64.2)" fill="#d9dadb"></path>
                      </g>
                    </g></svg>
             